/* XPM */
static char *_0997c5a7c1f4cac9bee9a89aa295e45TTsyB07crCXYLuQp[] = {
/* columns rows colors chars-per-pixel */
"32 32 233 2 ",
"   c None",
".  c #F98B00",
"X  c #F88C00",
"o  c #F88E00",
"O  c #F98E00",
"+  c #F88F00",
"@  c #F98F00",
"#  c #F89000",
"$  c #F99000",
"%  c #FB9000",
"&  c #F99200",
"*  c #F99400",
"=  c #F99500",
"-  c #FA9500",
";  c #FB9500",
":  c #F99600",
">  c #FB9600",
",  c #FB9700",
"<  c #FA9605",
"1  c #FB9B00",
"2  c #FB9C00",
"3  c #FB9D00",
"4  c #FB9C03",
"5  c #FC9D03",
"6  c #F99905",
"7  c #FA9A04",
"8  c #FA9A05",
"9  c #FA9D07",
"0  c #F89809",
"q  c #FA9809",
"w  c #FA9A0B",
"e  c #FA9C0B",
"r  c #FA9C0C",
"t  c #FA9D0D",
"y  c #FA9D0F",
"u  c #F89A11",
"i  c #FA9E12",
"p  c #F99914",
"a  c #F99B14",
"s  c #F99B17",
"d  c #F99D15",
"f  c #FA9F15",
"g  c #F99E16",
"h  c #F99D1A",
"j  c #F99E1B",
"k  c #F99F1B",
"l  c #F99C1C",
"z  c #F99D1C",
"x  c #FA9F1D",
"c  c #FBA000",
"v  c #FBA100",
"b  c #FCA402",
"n  c #FBA20D",
"m  c #FAA00F",
"M  c #FBA70D",
"N  c #FCAA0B",
"B  c #FBA90E",
"V  c #FBA90F",
"C  c #FCA90E",
"Z  c #FCAD0F",
"A  c #FAA211",
"S  c #FBA411",
"D  c #FBA511",
"F  c #FBA610",
"G  c #FBA710",
"H  c #FBA412",
"J  c #FBA512",
"K  c #FAA413",
"L  c #FBA413",
"P  c #FBA712",
"I  c #FAA316",
"U  c #FBA615",
"Y  c #FAA417",
"T  c #FBA810",
"R  c #FBA910",
"E  c #FCAB13",
"W  c #FCAC12",
"Q  c #FCAC14",
"!  c #FCAD14",
"~  c #FCAE14",
"^  c #FCAD17",
"/  c #FAA219",
"(  c #FAA418",
")  c #FAA41A",
"_  c #FAA21C",
"`  c #FAA31C",
"'  c #FAA31D",
"]  c #F9A01E",
"[  c #FAA31F",
"{  c #FAA51E",
"}  c #FAA41F",
"|  c #FAA51F",
" . c #FAA61E",
".. c #FAA71E",
"X. c #FBA71E",
"o. c #FAA61F",
"O. c #FAA71F",
"+. c #FBA819",
"@. c #FBAB1B",
"#. c #FBAD1A",
"$. c #FBAC1B",
"%. c #FBAD1B",
"&. c #FCAD19",
"*. c #FCAE18",
"=. c #FCAF18",
"-. c #FCAE19",
";. c #FCAF19",
":. c #FCAD1A",
">. c #FBA81C",
",. c #FBA91C",
"<. c #FBA81D",
"1. c #FBAA1C",
"2. c #FBAB1C",
"3. c #FBAA1D",
"4. c #FBA81E",
"5. c #FBA81F",
"6. c #FBAB1E",
"7. c #FBAC1C",
"8. c #FBAD1C",
"9. c #FCB016",
"0. c #FCB017",
"q. c #FCB018",
"w. c #FCB118",
"e. c #F99E20",
"r. c #F99E23",
"t. c #F99F23",
"y. c #F89B24",
"u. c #F89B25",
"i. c #F89B26",
"p. c #F89C24",
"a. c #F99C24",
"s. c #F99D24",
"d. c #F89C25",
"f. c #F99C25",
"g. c #F99E24",
"h. c #F99F24",
"j. c #F99F25",
"k. c #F9A021",
"l. c #F9A121",
"z. c #F9A221",
"x. c #FAA320",
"c. c #FAA221",
"v. c #FAA321",
"b. c #F9A022",
"n. c #F9A122",
"m. c #F9A023",
"M. c #F9A223",
"N. c #FAA420",
"B. c #FAA520",
"V. c #FAA421",
"C. c #FAA521",
"Z. c #FAA720",
"A. c #FAA621",
"S. c #FAA522",
"D. c #FAA523",
"F. c #F9A024",
"G. c #F9A425",
"H. c #F9A426",
"J. c #FAA626",
"K. c #FCA921",
"L. c #FBAE20",
"P. c #FAA924",
"I. c #F9A328",
"U. c #FBA72C",
"Y. c #FBA82B",
"T. c #FBA82C",
"R. c #FBA92C",
"E. c #FAA830",
"W. c #FBBB53",
"Q. c #FBBA5A",
"!. c #FCC064",
"~. c #FCC56F",
"^. c #FDC96B",
"/. c #FCC575",
"(. c #FCC977",
"). c #FCC878",
"_. c #FCCD7E",
"`. c #FCCA83",
"'. c #FCCC80",
"]. c #FCCD80",
"[. c #FCCD81",
"{. c #FDCD82",
"}. c #FDCF82",
"|. c #FCCE87",
" X c #FCCF8B",
".X c #FCCF8D",
"XX c #FDD389",
"oX c #FDD18B",
"OX c #FDD38A",
"+X c #FDD489",
"@X c #FDD18E",
"#X c #FCD193",
"$X c #FDD791",
"%X c #FED592",
"&X c #FCD195",
"*X c #FCD89F",
"=X c #FDDDA1",
"-X c #FDDEA9",
";X c #FDDFAC",
":X c #FDE0B3",
">X c #FDE1B7",
",X c #FDE6C2",
"<X c #FEE9C7",
"1X c #FEE8CA",
"2X c #FEE9CB",
"3X c #FEEACB",
"4X c #FEEACC",
"5X c #FEECD0",
"6X c #FEEED1",
"7X c #FEEFD5",
"8X c #FEEED6",
"9X c #FEF1D8",
"0X c #FEF0D9",
"qX c #FEF1D9",
"wX c #FEF0DA",
"eX c #FEF2DF",
"rX c #FEF2E0",
"tX c #FEF5E4",
"yX c #FFF4E5",
"uX c #FEF5E5",
"iX c #FEF5E7",
"pX c #FEF6E9",
"aX c #FFF8EC",
"sX c #FFFAF2",
"dX c #FFFCF6",
"fX c #FFFCF7",
"gX c #FFFCF8",
"hX c #FFFCF9",
"jX c #FFFDF9",
"kX c #FFFDFB",
"lX c #FFFEFC",
"zX c #FFFEFD",
"xX c white",
/* pixels */
"                          9.^ -.-.-.@.                          ",
"                      9.9.-.-.-.-.-.#.#.@.@.                    ",
"                9.9.9.9.w.-.-.:.-.7.@.@.@.@.2.2.                ",
"              9.9.9.w.-.-.-.-.:.7.#.@.@.2.2.2.2.2.              ",
"            9.9.9.9.-.-.-.-.#.7.@.@.2.2.2.2.) @.X.X.X.          ",
"          9.9.9.w.-.-.-.-.#.7.7.@.2.2.2.2.X.X.X.2.X.X.[         ",
"        9.9.w.W N C C V T T T F F F F H H H H H / | X.X.        ",
"      9.9.w.9.W W C V T T T F F F U F L H H H / ( | X.X.N.      ",
"    9.9.9.W b *XtX9X9X9X9X9X9X9X9X9X9X0X0X0X9XyX*X6 / N.N.N.    ",
"    9.9.^ ^ c 3XxXxXxXxXxXxXxXxXxXxXxXxXxXxXxXxX,X: [ N.N.z.    ",
"    w.-.-.Q c 6XxXxXxXxXxXxXxXxXxXxXxXxXxXxXxXxX3X: X.N.v.z.z.  ",
"  9.-.-.-.^ M ^.$XOX+XOX}.$XhXxXxXsX'.)._.}._.#X!.i ] z.v.z.z.  ",
"  -.-.:.:.@.L.c 1 2 1 1 O 5 fXxXxXyX; # ; & ; & 7 I.v.v.z.z.e.  ",
"-.-.-.-.#.@.@.@.2.2.:.U 5 K.hXxXxXpXU 9 _ _ N.N.v.v.v.z.z.z.z.F.",
"-.-.-.#.7.@.@.2.2.6.S n ; ) fXxXxXiXy ; y d D.v.v.v.z.z.z.F.h.z.",
"-.#.@.@.@.@.2.2.2.7 _.7X3X4XxXxXxXhX2X1X7X X< v.v.e.e.z.e.e.h.h.",
"#.@.@.@.@.@.@.@.2.; -XxXxXxXxXxXxXxXxXxXxX:X# n.n.] n.t.n.t.t.t.",
"@.@.@.@.2.@.X.X.X.& ;XxXxXxXxXxXxXxXxXxXxX>X# n.n.n.t.t.t.t.y.t.",
"@.@.@.2.2.X.X.X.X.m W.OX~.}.xXxXxXaX).)..XQ.u n.n.t.n.t.y.h.e.h.",
"  2.2.2.2.) 2.2.X.P.9 & X 1 fXxXxX0XX X # 0 M.n.n.n.j.t.h.h.h.  ",
"  2.2.X.) 2.X...X.X.] N.e T.hXxXxXrXz g M.n.t.t.h.h.y.h.h.h.y.  ",
"  2.2.) X.2.| | X.X.N.N.e T.hXxXxXrX/ p t.n.t.t.h.h.h.h.y.y.h.  ",
"    2.X.2.| | | | X.X.A.e Y.hXxXxXrXj p n.n.j.t.a.e.h.y.h.y.    ",
"    X.X.>.| ..| | n.A.A.w U.hXxXxXeXj s j.t.t.t.h.h.h.y.y.y.    ",
"      X.X.X.X.[ K.[ z.v.q U.xXxXxXxXl p f.y.f.f.y.y.h.i.i.      ",
"        X.[ X.z.v.v.v.v./ F.@X#X&X`.e.l f.h.D.y.f.y.y.i.i.      ",
"        X.[ z.X.v.v.v.v.F.[ O X O O h.h.v.h.y.h.y.i.i.i.        ",
"          X.z.z.v.t.v.z.z.z.h.h.F.F.v.f.f.y.h.i.i.i.i.          ",
"              z.v.z.z.z.z.e.h.e.e.h.h.h.y.y.y.i.i.i.            ",
"                z.z.e.z.h.h.h.h.h.h.h.y.h.i.i.i.                ",
"                    z.F.h.h.h.h.h.y.y.y.y.i.                    ",
"                          e.y.h.h.h.y.                          "
};
