/* XPM */
static char *_a15b70633574d24e8b3c47748ef2f66JnUCXVgq3MFWbXe4[] = {
/* columns rows colors chars-per-pixel */
"64 64 51 1 ",
"  c None",
". c #F99601",
"X c #FB9C03",
"o c #FA9B0C",
"O c #F99C14",
"+ c #F99D19",
"@ c #FBA100",
"# c #FBA40C",
"$ c #FCA90C",
"% c #FAA313",
"& c #FBAA12",
"* c #FAA51E",
"= c #FBAB1B",
"- c #FCB016",
"; c #FCB018",
": c #F99D24",
"> c #F9A221",
", c #FBAB23",
"< c #FAA62C",
"1 c #FCAD2C",
"2 c #FCB12B",
"3 c #FAA731",
"4 c #FBAC35",
"5 c #FBAD38",
"6 c #FCB234",
"7 c #FBB33E",
"8 c #FCB644",
"9 c #FCB847",
"0 c #FBB748",
"q c #FBB753",
"w c #FCBA5B",
"e c #FCBE62",
"r c #FBC469",
"t c #FDCB6C",
"y c #FCC774",
"u c #FCCB7E",
"i c #FCCE87",
"p c #FED383",
"a c #FDD38B",
"s c #FED791",
"d c #FDDDAC",
"f c #FDDFB1",
"g c #FDE1B1",
"h c #FDE4B8",
"j c #FEEBC9",
"k c #FEEDD3",
"l c #FEF1DD",
"z c #FEF4E3",
"x c #FFF8EE",
"c c #FFFAF1",
"v c #FFFFFF",
/* pixels */
"                                                                ",
"                           ;;;=;;==-=;                          ",
"                       ---;;;;=;=====;====                      ",
"                    -----;-=;&;-=--=;========                   ",
"                  ;--;;;;;;=&;==;==;===========                 ",
"                --;--;;=-=;-=;;===;========>*==*                ",
"               -------;;;;===;=========,==*===*==*              ",
"             -------;;;;=-=-;==;,;===========*==*==             ",
"            ------;-;;&;;;;===,=;===========*=***===>           ",
"           -------;=-=;;===;;;;=========>==>===**,>>==          ",
"          -------;;;-=&===;;================***==*>=>=*         ",
"         -------;-=;=;===;,;========*==***=*=*=*=*=>=>>=        ",
"        -------=;;;=;-==;========*===,*==*=*=>,*>=>*=>**        ",
"       -------;-;;;;==;==============*==*=*====>=>=*>=**>       ",
"       ----;--&$&$$&&$&&&&=&%%&%=%=%%=%%%%%%*%%%%*>*>*>=>=      ",
"      -----;;--&$$$#$$$$#$##$$$$#####%##%%$%#O%%%%,*=>*>>>>     ",
"     -----;;=@tkjjjjjjjjjjjjjjjjjjjjjjjjjjjjjjjjkro**>**>>=     ",
"     ----=;;&Xsvvvvvvvvvvvvvvvvvvvvvvvvvvvvvvvvvvi.****>*>>*    ",
"    -----;-=;@pvvvvvvvvvvvvvvvvvvvvvvvvvvvvvvvvvvu.**>,>>>*>    ",
"    ---=--=;=@pvvvvvvvvvvvvvvvvvvvvvvvvvvvvvvvvvvu.*>****>>>>   ",
"   --;=--=--;@pvvvvvvvvvvvvvvvvvvvvvvvvvvvvvvvvvvu.*>**>>>>>>   ",
"   -;;;&=;==;@avvvvvvvvvvvvvvvvvvvvvvvvvvvvvvvvvvi.>>>>>>>>>>>  ",
"   ;;;;;;=;-=@uvccxccxccxcxxvvvvvvvvzzzzzzzzzzzzxy.>=>>*>>>>>>  ",
"  =;;=;=-=====,62222222121=8vvvvvvvz,%>*,*,>>,>><**>>>>>>>>>>>  ",
"  ;=;=;;==;===&##########o.,cvvvvvvz%X%%%o%O%O%%O*>>*>>>>>*:*:* ",
"  =-=;==&;;===*====&*=====@6vvvvvvvz>%********>***>*>>>>>>:>:*: ",
"  -;;====;,=============*=o6cvvvvvvz=O***>**>>>>*>*:>>>>>>>>>>> ",
" &;===;;;===========*=**=*#6vvvvvvvz>%***>*>>**>:*>>>>>*>*>>::> ",
" ;=;==;==========,==*=&=*%X6cvvvvvvz*o=***+**>>**>>>>>>:>>>:>>:>",
" ==;=;=========**=*=%XXXXX.*vvvvvvvzX....Xo+>*>>>>>>>>:*>:>>:>::",
" ;================*#6gggggdhvvvvvvvcgdfffgf0o>>>:*>>:*>::>>:>:>:",
" ==;=;===,====,==*=X0vvvvvvvvvvvvvvvvvvvvvve.>>>*>>>>>>>>:>>::>:",
" ==============**==o8vvvvvvvvvvvvvvvvvvvvvvw.>>>>>>>>>::>>>:::::",
" ============*===*=@8vvvvvvvvvvvvvvvvvvvvvvw.>>>>>>>:>>>>>:>:>:>",
" ========>*=*==**=*X8vvvvvvvvvvvvvvvvvvvvvvw.>>>>>:::>>:::>:::::",
" ===,=======*==***=X0vvvvvvvvvvvvvvvvvvvvvve.>>>>>::>:>>>::::>::",
" ============*=*==>#7lzlllllvvvvvvvcllllllzqo>>>>>>:>>>::::::>: ",
" =====>==>>=*=*=*********=X4vvvvvvvkOO**+*>::>>::>:>>::>:>::::: ",
"  =====**====**,=>=>=%O%%%.1vvvvvvvkooO+++++>:>>>::::>::>:::::: ",
"  ==*====*=***==>=********o5cvvvvvvk++>>>>>>>>:>:>>:::::::::::: ",
"  =*==*=*=*>=,=>=>**=****>o4vvvvvvvk++*>>:*::>::::::::::::::::  ",
"  ===*=*==*==*>=>=>=>*=>>*o4cvvvvvvk++>>:*>+>>>>::::::::>:::::  ",
"   ===*==>>=**=*==>*>=>>**o5vvvvvvvk++>>>>>:>::>::::::::::::::  ",
"   ,**=*=>=***>*>****>**,>o5vvvvvvvk++*>:>:>>:>::::::::::::::   ",
"   =*=*=,**=********>*>>>>o4vvvvvvvk++>:>:>>:::>:::::::::::::   ",
"    =*=>=>**=>=****>**>**>o4cvvvvvvk++>:>>:>:>::::>::::::::::   ",
"    =*,*>=**>********,>=>*o5vvvvvvvk+O:>:>::>::>::::::::::::    ",
"     =**=>=>=****>*>*>>>>*O5cvvvvvvk++:>>::>::::::::::::::::    ",
"      =>=>*=>**>*>>>=>>*>>o5cvvvvvvk::::::::::::::::::::::5     ",
"      >=**>=*****>*>>>>*>>o5vvvvvvvl::::::::::::::::::::::      ",
"       >=*=*=>>*>**>>>>>>>O4xcccxxvjOO:::::::::::::::::::3      ",
"        >*>>>**>*>>>*>>>>>*>33333333:::::::::::::::::::::       ",
"        ***>>>=>>>**>>>>>>>+OoOOOOOO::::::::::::::::::::        ",
"         >***>>>*>>>>>>>>>:*::>:::::::::::::::::::::::3         ",
"          *>,>>>*>>>>>>>:>>:>:>>:::::::::::::::::::::3          ",
"           **>>=>>*>>>>>>>:*:>>::::::::::::::::::::::           ",
"             >*>>>>>>>>>>>>:>>>::::::::::::::::::::3            ",
"              >>>>>>>>>>::>>:::>+::::::::::::::::::             ",
"               >>>>>>*::>>>:>::::::::::::::::::::               ",
"                 >>>>:+>>:>:>::>::::::::::::::::                ",
"                   >:::>:>::>::::::::::::::::3                  ",
"                     <>>>::>:::::::::::::3:                     ",
"                        :>::::::::::::::                        ",
"                            ::::::::                            "
};
