/* XPM */
static char *aa813de30f394208f2ad32427c3d3411G8vDIMQrg2gpbESE[] = {
/* columns rows colors chars-per-pixel */
"16 16 141 2 ",
"   c None",
".  c #F98200",
"X  c #F88600",
"o  c #FA8800",
"O  c #FB8D00",
"+  c #F89000",
"@  c #F99000",
"#  c #F99200",
"$  c #F99400",
"%  c #F89206",
"&  c #F89207",
"*  c #F89507",
"=  c #FB9A02",
"-  c #FA9807",
";  c #FA9708",
":  c #F9990A",
">  c #FA9C0B",
",  c #FA9E13",
"<  c #F99914",
"1  c #FA9F17",
"2  c #F99919",
"3  c #F99E1A",
"4  c #F89F1C",
"5  c #FBA000",
"6  c #FCA103",
"7  c #FCAA07",
"8  c #FBA20A",
"9  c #FBA20D",
"0  c #FBA40D",
"q  c #FBA60D",
"w  c #FBA40F",
"e  c #FBA70E",
"r  c #FBA60F",
"t  c #FCA90C",
"y  c #FCA80D",
"u  c #FBA516",
"i  c #FBA616",
"p  c #FBA811",
"a  c #FBAA13",
"s  c #FCAF11",
"d  c #FBA814",
"f  c #FBA914",
"g  c #FBA815",
"h  c #FCAF15",
"j  c #FAA519",
"k  c #FBA619",
"l  c #F9A11E",
"z  c #FAA61C",
"x  c #FBA71C",
"c  c #FBA71D",
"v  c #FAA51E",
"b  c #FAA41F",
"n  c #FAA51F",
"m  c #FAA61E",
"M  c #FBA71E",
"N  c #FBA71F",
"B  c #FBAA18",
"V  c #FBAB1B",
"C  c #FBAC1B",
"Z  c #FBAD1B",
"A  c #FCAD18",
"S  c #FCAD19",
"D  c #FCAE18",
"F  c #FCAE19",
"G  c #FCAC1A",
"H  c #FCAD1A",
"J  c #FBA81C",
"K  c #FBA91C",
"L  c #FBA81D",
"P  c #FBAB1C",
"I  c #FBAA1D",
"U  c #FBAC1C",
"Y  c #FCAD1C",
"T  c #FCAF1D",
"R  c #FCB016",
"E  c #FCB117",
"W  c #FCB118",
"Q  c #FCB019",
"!  c #FCB119",
"~  c #F99D21",
"^  c #F99E20",
"/  c #F99E22",
"(  c #F99F22",
")  c #F99E23",
"_  c #F99F23",
"`  c #F89B25",
"'  c #F89B26",
"]  c #F99C24",
"[  c #F99D24",
"{  c #F99C25",
"}  c #F99D25",
"|  c #F99E24",
" . c #F99F24",
".. c #F99F26",
"X. c #F9A020",
"o. c #F9A120",
"O. c #F9A121",
"+. c #FAA221",
"@. c #F9A022",
"#. c #F9A122",
"$. c #FAA323",
"%. c #FAA420",
"&. c #FAA520",
"*. c #FAA421",
"=. c #FAA523",
"-. c #F9A227",
";. c #FAA424",
":. c #FAA425",
">. c #FAA820",
",. c #FAA822",
"<. c #FBA729",
"1. c #FAAC37",
"2. c #FAAA3B",
"3. c #FBB24D",
"4. c #FCBB4F",
"5. c #FCB754",
"6. c #FBBA56",
"7. c #FCB954",
"8. c #FDC157",
"9. c #FBC066",
"0. c #FDC767",
"q. c #FDCA7C",
"w. c #FDCD81",
"e. c #FDE1B9",
"r. c #FDE2BD",
"t. c #FEE6C7",
"y. c #FEE9CB",
"u. c #FEE9CC",
"i. c #FEE9CD",
"p. c #FEECD1",
"a. c #FFECD2",
"s. c #FEF4E1",
"d. c #FEF4E3",
"f. c #FEF6EA",
"g. c #FFF8EE",
"h. c #FFFAF3",
"j. c #FFFBF6",
"k. c #FEFDF8",
"l. c #FFFEFC",
"z. c #FFFFFD",
"x. c white",
/* pixels */
"            E D D U             ",
"        E ! D D T U P P         ",
"      s 7 t t 0 0 0 p 9 k ,.    ",
"    E h D a g g g i i z z z     ",
"  ! = 0.z.z.z.d.d.z.z.z.9.$ ;.  ",
"  ! 6 8.p.i.a.z.z.i.t.i.6.; =.  ",
"D D T p 8 o O z.k.X . : 3 :.O.O.",
"D V P V 0 7.w.z.z.q.7., l O.O.| ",
"C C C g = f.z.z.z.z.g.* 3 O.| | ",
"C K K K j 2.5.z.j.3.2.4 ( | ( | ",
"  J J =.,.@ : z.h.@ @ -.| | |   ",
"  J J J =.> <.z.z.( < | | | '   ",
"    z =.*., ;.r.e.( 2 ( | '     ",
"    z l +.;.O.& & | | ' ' '     ",
"        +.O.| 4 ( ( | '         ",
"            | ( ' '             "
};
